<?xml version="1.0" encoding="utf-8"?>
<!-- Generator: Adobe Illustrator 17.1.0, SVG Export Plug-In . SVG Version: 6.00 Build 0)  -->
<!DOCTYPE svg PUBLIC "-//W3C//DTD SVG 1.1//EN" "http://www.w3.org/Graphics/SVG/1.1/DTD/svg11.dtd">
<svg version="1.1" id="Capa_1" xmlns="http://www.w3.org/2000/svg" xmlns:xlink="http://www.w3.org/1999/xlink" x="0px" y="0px"
	 viewBox="0 0 511.6 511.6" enable-background="new 0 0 511.6 511.6" xml:space="preserve">
<g>
	<path fill="#FFFFFF" d="M446.6,184.5c-11.5-31.8-17-53-17-64.7V37.5c0-9.3-3.2-17.1-9.8-23.7C413.1,7.2,405.3,4,396,4H213.3
		c-9.3,0-17.1,3.2-23.7,9.8c-6.6,6.6-9.8,14.4-9.8,23.7v82.2c0,2.3-0.5,4.7-1.5,7.2c-1,2.5-2.5,5-4.4,7.5c-1.8,2.3-3.5,4.4-5.2,6.4
		c-1.7,2.1-3.9,4.5-6.7,7.1c-2.7,2.6-4.7,4.5-6.2,5.9c-1.4,1.3-3.5,3.1-6.2,5.5c-3.2,2.8-4.4,3.7-5,4.1
		c-14.1,12.4-26.5,22-37.1,28.7c-4.1,2.5-10.1,5.8-18,9.6c-7.7,3.8-14.6,7.3-20.4,10.5c-5.8,3.2-11.7,7-17.7,11.4
		c-5.7,4.2-10.2,9.1-13.3,14.7c-3.1,5.5-4.6,11.7-4.6,18.4c0,23,6.3,42.2,18.6,57c12.2,14.7,29.5,22.2,51.5,22.2
		c13.6,0,25.5-2,35.4-6.1l4.1-1.7v111.2c0,18.9,7,35.5,20.8,49.3c13.8,13.8,30.3,20.8,49,20.8c19.1,0,35.7-7,49.6-20.7
		c13.8-13.7,20.8-30.3,20.8-49.4v-50.9l2.7-0.3c11.9-1.3,22.9-4.7,32.8-10.2l0.9-0.5l1,0.1c3.8,0.5,7.8,0.8,11.9,0.8
		c18.6,0,35.1-5.6,48.9-16.8l1.1-0.9l2.5,0.5l0.6,0c25.2,0,45-8,58.9-23.8c14.2-16.1,21.4-37.5,21.4-63.7
		C466.1,250.2,459.5,220.1,446.6,184.5z M362.8,40.8c4.2-4.2,9.2-6.3,15-6.3c5.7,0,10.8,2.1,15,6.3c4.2,4.2,6.3,9.2,6.3,15
		c0,5.7-2.1,10.8-6.3,15c-4.2,4.2-9.2,6.3-15,6.3c-5.7,0-10.8-2.1-15-6.3c-4.2-4.2-6.3-9.2-6.3-15C356.5,50.1,358.6,45,362.8,40.8z
		 M423.1,315.7c-8.4,9.9-21.2,14.9-38.3,14.9c-5.4,0-10.2-0.3-14.4-0.9c-3.4,5.4-8.5,9.8-15.3,13c-7.3,3.5-14.8,5.3-22.3,5.3
		c-6.8,0-13.2-1.5-19.1-4.4c-9.7,9.6-21.4,14.4-34.5,14.4c-9.5,0-18.4-2.5-26.4-7.3v88.8c0,10.7-3.9,20-11.7,27.8
		c-7.8,7.8-17.1,11.7-27.8,11.7c-10.5,0-19.8-4-27.7-12c-7.9-8-11.9-17.2-11.9-27.5V278.4c-2.7,0.5-5.9,1.7-9.5,3.6
		c-5.3,2.8-10.5,5.9-15.4,9.2c-5.2,3.5-12,6.8-20.1,9.8c-8.2,3-16.6,4.5-25.1,4.5c-13.7,0-23.9-4.7-30.3-14
		c-6.1-8.9-9.2-20.6-9.2-34.7c0-2.4,1.4-4.9,4.3-7.5c2.3-2.1,5.4-4.3,9.2-6.5c3.6-2.1,7-4,10.2-5.7c3.2-1.7,6.7-3.5,10.4-5.3
		c4.7-2.3,6-2.9,6.5-3.1c8.6-4.5,15-8.1,19-10.6c12-7.5,25.8-18.2,41-31.7l0.1-0.1c0.9-0.7,2.1-1.8,3.9-3.3
		c6.2-5.4,11.3-10.1,15.3-13.9c3.9-3.7,8.2-8.4,12.9-14c4.5-5.4,7.9-11.1,10.1-17c2.1-5.8,3.2-12,3.2-18.2v-12.1H399v12.1
		c0,13.3,3,29,9,46.7c6.1,18.1,12.2,36.7,18.3,55.4c6.2,19.1,9.3,36.9,9.3,53.2C435.5,292.3,431.4,305.9,423.1,315.7z"/>
</g>
</svg>
